HIERARCHY
ROOT hip
{
  OFFSET 0 0 0
  CHANNELS 6 Xposition Yposition Zposition Zrotation Yrotation Xrotation
  JOINT abdomen
  {
    OFFSET 0 20.6881 -0.73152
    CHANNELS 3 Zrotation Xrotation Yrotation
    JOINT chest
    {
      OFFSET 0 11.7043 -0.48768
      CHANNELS 3 Zrotation Xrotation Yrotation
      JOINT neck
      {
        OFFSET 0 22.1894 -2.19456
        CHANNELS 3 Zrotation Xrotation Yrotation
        JOINT head
        {
          OFFSET -0.24384 7.07133 1.2192
          CHANNELS 3 Zrotation Xrotation Yrotation
          JOINT leftEye
          {
            OFFSET 4.14528 8.04674 8.04672
            CHANNELS 3 Zrotation Xrotation Yrotation
            End Site
            {
              OFFSET 1 0 0
            }
          }
          JOINT rightEye
          {
            OFFSET -3.6576 8.04674 8.04672
            CHANNELS 3 Zrotation Xrotation Yrotation
            End Site
            {
              OFFSET 1 0 0
            }
          }
        }
      }
      JOINT rCollar
      {
        OFFSET -2.68224 19.2634 -4.8768
        CHANNELS 3 Zrotation Xrotation Yrotation
        JOINT rShldr
        {
          OFFSET -8.77824 -1.95073 1.46304
          CHANNELS 3 Zrotation Xrotation Yrotation
          JOINT rForeArm
          {
            OFFSET -28.1742 -1.7115 0.48768
            CHANNELS 3 Zrotation Xrotation Yrotation
            JOINT rHand
            {
              OFFSET -22.5879 0.773209 7.07136
              CHANNELS 3 Zrotation Xrotation Yrotation
              JOINT rThumb1
              {
                OFFSET -1.2192 -0.487915 3.41376
                CHANNELS 3 Zrotation Xrotation Yrotation
                JOINT rThumb2
                {
                  OFFSET -3.37035 -0.52449 3.41376
                  CHANNELS 3 Zrotation Xrotation Yrotation
                  End Site
                  {
                    OFFSET -1.78271 -1.18214 1.43049
                  }
                }
              }
              JOINT rIndex1
              {
                OFFSET -7.75947 0.938293 5.60832
                CHANNELS 3 Zrotation Xrotation Yrotation
                JOINT rIndex2
                {
                  OFFSET -2.54057 -0.884171 1.56538
                  CHANNELS 3 Zrotation Xrotation Yrotation
                  End Site
                  {
                    OFFSET -1.62519 -0.234802 1.16502
                  }
                }
              }
              JOINT rMid1
              {
                OFFSET -8.24714 1.18213 3.41376
                CHANNELS 3 Zrotation Xrotation Yrotation
                JOINT rMid2
                {
                  OFFSET -3.10165 -0.590103 1.0647
                  CHANNELS 3 Zrotation Xrotation Yrotation
                  End Site
                  {
                    OFFSET -2.48547 -0.328903 0.83742
                  }
                }
              }
              JOINT rRing1
              {
                OFFSET -8.82822 0.546677 1.51678
                CHANNELS 3 Zrotation Xrotation Yrotation
                JOINT rRing2
                {
                  OFFSET -2.60934 -0.819778 -0.0198488
                  CHANNELS 3 Zrotation Xrotation Yrotation
                  End Site
                  {
                    OFFSET -2.33842 -0.294052 0.168128
                  }
                }
              }
              JOINT rPinky1
              {
                OFFSET -8.27202 -0.0477905 -0.4584
                CHANNELS 3 Zrotation Xrotation Yrotation
                JOINT rPinky2
                {
                  OFFSET -1.82734 -0.647385 -0.700984
                  CHANNELS 3 Zrotation Xrotation Yrotation
                  End Site
                  {
                    OFFSET -1.69225 -0.51767 -0.607171
                  }
                }
              }
            }
          }
        }
      }
      JOINT lCollar
      {
        OFFSET 2.68224 19.2634 -4.8768
        CHANNELS 3 Zrotation Xrotation Yrotation
        JOINT lShldr
        {
          OFFSET 8.77824 -1.95073 1.46304
          CHANNELS 3 Zrotation Xrotation Yrotation
          JOINT lForeArm
          {
            OFFSET 28.1742 -1.7115 0.48768
            CHANNELS 3 Zrotation Xrotation Yrotation
            JOINT lHand
            {
              OFFSET 22.5879 0.773209 7.07136
              CHANNELS 3 Zrotation Xrotation Yrotation
              JOINT lThumb1
              {
                OFFSET 1.2192 -0.487915 3.41376
                CHANNELS 3 Zrotation Xrotation Yrotation
                JOINT lThumb2
                {
                  OFFSET 3.37035 -0.52449 3.41376
                  CHANNELS 3 Zrotation Xrotation Yrotation
                  End Site
                  {
                    OFFSET 1.78271 -1.18214 1.43049
                  }
                }
              }
              JOINT lIndex1
              {
                OFFSET 7.75947 0.938293 5.60832
                CHANNELS 3 Zrotation Xrotation Yrotation
                JOINT lIndex2
                {
                  OFFSET 2.54057 -0.884171 1.56538
                  CHANNELS 3 Zrotation Xrotation Yrotation
                  End Site
                  {
                    OFFSET 1.62519 -0.234802 1.16502
                  }
                }
              }
              JOINT lMid1
              {
                OFFSET 8.24714 1.18213 3.41376
                CHANNELS 3 Zrotation Xrotation Yrotation
                JOINT lMid2
                {
                  OFFSET 3.10165 -0.590103 1.0647
                  CHANNELS 3 Zrotation Xrotation Yrotation
                  End Site
                  {
                    OFFSET 2.48547 -0.328903 0.83742
                  }
                }
              }
              JOINT lRing1
              {
                OFFSET 8.82822 0.546677 1.51678
                CHANNELS 3 Zrotation Xrotation Yrotation
                JOINT lRing2
                {
                  OFFSET 2.60934 -0.819778 -0.0198488
                  CHANNELS 3 Zrotation Xrotation Yrotation
                  End Site
                  {
                    OFFSET 2.33842 -0.294052 0.168128
                  }
                }
              }
              JOINT lPinky1
              {
                OFFSET 8.27202 -0.0477905 -0.4584
                CHANNELS 3 Zrotation Xrotation Yrotation
                JOINT lPinky2
                {
                  OFFSET 1.82734 -0.647385 -0.700984
                  CHANNELS 3 Zrotation Xrotation Yrotation
                  End Site
                  {
                    OFFSET 1.69225 -0.51767 -0.607171
                  }
                }
              }
            }
          }
        }
      }
    }
  }
  JOINT rButtock
  {
    OFFSET -8.77824 4.35084 1.2192
    CHANNELS 3 Zrotation Xrotation Yrotation
    JOINT rThigh
    {
      OFFSET 0 -1.70687 -2.19456
      CHANNELS 3 Zrotation Xrotation Yrotation
      JOINT rShin
      {
        OFFSET 0 -36.8199 0.73152
        CHANNELS 3 Zrotation Xrotation Yrotation
        JOINT rFoot
        {
          OFFSET 0.73152 -45.1104 -5.12064
          CHANNELS 3 Zrotation Xrotation Yrotation
          End Site
          {
            OFFSET -1.1221 -3.69964 12.103
          }
        }
      }
    }
  }
  JOINT lButtock
  {
    OFFSET 8.77824 4.35084 1.2192
    CHANNELS 3 Zrotation Xrotation Yrotation
    JOINT lThigh
    {
      OFFSET 0 -1.70687 -2.19456
      CHANNELS 3 Zrotation Xrotation Yrotation
      JOINT lShin
      {
        OFFSET 0 -36.8199 0.73152
        CHANNELS 3 Zrotation Xrotation Yrotation
        JOINT lFoot
        {
          OFFSET -0.73152 -45.1104 -5.12064
          CHANNELS 3 Zrotation Xrotation Yrotation
          End Site
          {
            OFFSET 1.1221 -3.69964 12.103
          }
        }
      }
    }
  }
}
MOTION
Frames:	4
Frame Time:	0.03333
-1.9738551409423684 63.408286556055984 -2.218612035002866 -168.64666748046875 75.84073638916016 -175.49636840820312 4.318836688995361 17.971668243408203 7.502388954162598 -2.353076457977295 -12.651599884033203 1.5232325792312622 0.4569641053676605 13.822773933410645 10.967318534851074 -2.135512113571167 -28.45587921142578 22.883695602416992 0.1379120945930481 -0.0006078064325265586 -0.22510237991809845 -0.1856316179037094 -0.280819296836853 -0.3514206111431122 -0.09075617045164108 -0.3168278634548187 -0.20064137876033783 37.90229415893555 56.363311767578125 12.456748962402344 -27.654338836669922 -42.47755813598633 87.42464447021484 0.024127552285790443 14.935991287231445 1.8573673963546753 -0.07822684943675995 -0.1851058006286621 0.1571083515882492 0.07981260865926743 0.5672729015350342 0.16339121758937836 0.06587541103363037 0.3322471082210541 0.16841334104537964 7.798521995544434 4.86488151550293 -0.20034505426883698 0.25306153297424316 -0.3080309331417084 -0.4209361672401428 2.4661998748779297 1.3585739135742188 0.2340441644191742 -0.24242816865444183 -0.23002047836780548 -0.18704189360141754 10.375688552856445 0.6045593619346619 -0.012266721576452255 0.06385436654090881 0.3170492351055145 -0.1616811454296112 1.9141793251037598 -0.977636992931366 -0.572437047958374 0.15323324501514435 -0.02210051380097866 -0.014134829863905907 -55.026206970214844 18.676902770996094 -31.648035049438477 27.528337478637695 -43.73971939086914 -90.5761489868164 2.200991630554199 -42.711307525634766 7.24150276184082 0.2021852284669876 -0.0759814903140068 -0.46763452887535095 -0.41460147500038147 0.3537583351135254 -0.10815746337175369 0.04125148057937622 0.29725381731987 -0.10778268426656723 -7.88778018951416 5.655365467071533 -0.22376322746276855 0.042824886739254 0.21056953072547913 -0.3292110562324524 -2.924922466278076 1.1326229572296143 -0.39192384481430054 0.173444002866745 0.21721647679805756 0.5409194231033325 -10.511523246765137 0.9462710022926331 -0.15332850813865662 0.03751727566123009 0.3990716338157654 0.042017582803964615 -1.8699387311935425 -0.6913830041885376 0.12082194536924362 0.14193803071975708 -0.20332595705986023 -0.10861392319202423 -41.317970275878906 -51.856849670410156 -30.50995445251465 -5.701058387756348 79.84866333007812 6.390463829040527 -0.9727410674095154 -2.4880056381225586 -10.3668794631958 0.31749221682548523 0.6136332750320435 0.4480877220630646 13.68111515045166 -63.085758209228516 12.051396369934082 0.5063022375106812 72.91596221923828 -1.6965070962905884 4.281219005584717 -22.666418075561523 7.682923793792725
-1.720955434091599 64.33543009437186 -4.252038751864764 -177.54986572265625 76.69778442382812 177.995849609375 2.727287530899048 18.113609313964844 7.100327014923096 -2.524940013885498 -12.58185863494873 1.604183554649353 0.6406711339950562 13.831214904785156 11.103918075561523 -2.349137306213379 -27.83945655822754 22.254404067993164 0.146584615111351 -0.08149439841508865 -0.12280744314193726 -0.25666260719299316 -0.32836461067199707 -0.22829559445381165 -0.4643521308898926 -0.4081033766269684 -0.28472957015037537 39.245361328125 56.53091812133789 9.17141342163086 -27.72837257385254 -43.21828842163086 88.21234130859375 0.19537918269634247 15.69265079498291 1.9278708696365356 0.007487867958843708 -0.2849760055541992 0.12652629613876343 0.22633978724479675 0.5713061690330505 0.12789590656757355 0.03467657417058945 0.33235153555870056 0.28142544627189636 7.731560230255127 4.91412353515625 -0.021968254819512367 0.27143171429634094 -0.591677725315094 -0.28402432799339294 2.5472021102905273 1.276268720626831 0.343394011259079 -0.17921221256256104 -0.31585100293159485 -0.4864329397678375 10.476704597473145 0.4571298360824585 0.11827349662780762 0.04396769404411316 0.3535502254962921 -0.17698261141777039 1.816969394683838 -0.8523850440979004 -0.543136715888977 0.24910952150821686 0.0719338208436966 -0.08626637607812881 -54.80874252319336 19.017868041992188 -30.3729190826416 27.4207763671875 -44.751792907714844 -92.1799087524414 2.3820457458496094 -43.11740493774414 7.483242988586426 0.11232829093933105 -0.231586754322052 -0.3527193069458008 -0.5007912516593933 0.28697118163108826 -0.13353615999221802 -0.07362469285726547 0.23945701122283936 -0.08844374865293503 -7.924824237823486 5.8267645835876465 -0.3032706677913666 0.239761084318161 0.2516922056674957 -0.4209901690483093 -2.8656556606292725 1.1298296451568604 -0.22852857410907745 0.0811992809176445 0.11557790637016296 0.6057685017585754 -10.521726608276367 0.9174565076828003 -0.07948215305805206 0.27144545316696167 0.4048489034175873 -0.04490959271788597 -2.0595133304595947 -0.7762386798858643 0.13273265957832336 0.17363864183425903 -0.15358084440231323 -0.006539858411997557 -41.05058288574219 -54.939605712890625 -33.780853271484375 -11.56551456451416 84.5821304321289 11.887797355651855 -0.3758190870285034 -4.30255126953125 -7.958556652069092 0.34318435192108154 0.6477437615394592 0.3720722794532776 5.10176420211792 -59.27057647705078 7.541629791259766 0.38094109296798706 69.85196685791016 -1.6183911561965942 4.092111110687256 -20.942298889160156 5.62932014465332
-1.4384466437454124 64.89826500273759 -6.349864334202949 171.83624267578125 77.02140045166016 168.90106201171875 1.5950099229812622 18.33082389831543 6.968087673187256 -3.0537664890289307 -12.64883804321289 1.895987868309021 1.0436091423034668 14.00291633605957 11.85153865814209 -2.744933843612671 -27.70561981201172 22.560955047607422 0.11708594858646393 -0.16183070838451385 0.061470743268728256 -0.28642356395721436 -0.2845451533794403 -0.11386644840240479 -0.6265057921409607 -0.4999575912952423 -0.28036585450172424 43.512882232666016 58.378807067871094 2.692641496658325 -27.493040084838867 -44.26874923706055 90.03314208984375 0.40614235401153564 15.022377014160156 1.6853864192962646 0.14198008179664612 -0.2269061803817749 0.06066296994686127 0.25954481959342957 0.4724094569683075 0.04883219301700592 0.045346155762672424 0.26400506496429443 0.38839974999427795 7.720273494720459 5.037453651428223 0.3456329107284546 0.14399248361587524 -0.6549503803253174 0.009099666960537434 2.6442108154296875 1.1016701459884644 0.5157252550125122 -0.19249464571475983 -0.32930731773376465 -0.5853488445281982 10.575870513916016 0.47372734546661377 0.2423718422651291 -0.0646149292588234 0.347610205411911 -0.25927457213401794 1.7937307357788086 -0.5773698091506958 -0.376058965921402 0.4120345413684845 0.1391916573047638 -0.1690325140953064 -54.722938537597656 16.626773834228516 -30.20142936706543 27.073246002197266 -45.12714385986328 -93.44304656982422 2.796088933944702 -41.67716598510742 7.230640411376953 0.15529295802116394 -0.3197212219238281 -0.2580500543117523 -0.3320450186729431 -0.08366367965936661 -0.050109490752220154 -0.08105360716581345 0.057363707572221756 -0.054857734590768814 -8.025860786437988 5.854730606079102 -0.3658624589443207 0.48293420672416687 0.30770939588546753 -0.5727549195289612 -2.851771354675293 1.1782053709030151 -0.15230010449886322 0.10685350000858307 0.1185210645198822 0.5743542313575745 -10.541555404663086 0.8958638906478882 0.04782895743846893 0.46765419840812683 0.3514063060283661 -0.11355852335691452 -2.3112213611602783 -0.8432130813598633 0.2343088984489441 0.09087114781141281 -0.18342262506484985 0.148761585354805 -38.10575485229492 -57.02671813964844 -35.6172981262207 -41.0909423828125 88.23907470703125 41.3798713684082 -0.27740561962127686 -7.019467830657959 -5.900483131408691 0.26734092831611633 0.4994478225708008 0.254334956407547 0.361192524433136 -57.536582946777344 6.535292148590088 0.7607613801956177 68.54761505126953 -1.982202172279358 2.884554147720337 -17.549381256103516 1.2032135725021362
-1.1009834319977727 65.93584586974339 -8.298166403438978 155.90487670898438 77.73455047607422 161.0962677001953 0.1775168925523758 18.731115341186523 6.924017429351807 -3.7270305156707764 -12.658926963806152 1.9987866878509521 0.9974921345710754 14.098657608032227 12.228464126586914 -3.0073671340942383 -27.877151489257812 22.406972885131836 -0.09981755912303925 -0.16408908367156982 0.14722509682178497 -0.3442285358905792 -0.14744305610656738 -0.09369294345378876 -0.5344671607017517 -0.5128704905509949 -0.13197419047355652 47.045692443847656 58.614620208740234 -2.543123960494995 -27.012672424316406 -44.36745834350586 91.18196868896484 0.48732125759124756 14.226840019226074 1.6523374319076538 0.25570613145828247 -0.09840620309114456 -0.09796294569969177 0.1307508647441864 0.30483463406562805 -0.04066002368927002 0.0853191465139389 0.17843884229660034 0.38906505703926086 7.783086776733398 5.180693626403809 0.6839531064033508 -0.003979708533734083 -0.4005116820335388 0.31655043363571167 2.808903932571411 1.0078047513961792 0.5700990557670593 -0.24512767791748047 -0.1984156221151352 -0.5096688270568848 10.55042839050293 0.6145015954971313 0.22449445724487305 -0.16530798375606537 0.3450513482093811 -0.19393213093280792 1.8316096067428589 -0.3096314072608948 -0.13778753578662872 0.4850124716758728 0.10908032953739166 -0.22673161327838898 -55.0749626159668 14.235921859741211 -29.487966537475586 26.476795196533203 -45.3042106628418 -94.46635437011719 3.211732864379883 -40.38174819946289 6.820957183837891 0.2966373860836029 -0.31444430351257324 -0.3210829794406891 -0.18904392421245575 -0.5632296204566956 0.05339042469859123 0.0237905103713274 -0.08869104832410812 0.035106804221868515 -7.965174674987793 5.651872158050537 -0.36946403980255127 0.6507804989814758 0.23538362979888916 -0.638054609298706 -2.940171718597412 1.2445862293243408 -0.16967391967773438 0.2272437959909439 0.05897687003016472 0.4845852553844452 -10.554759979248047 0.8548124432563782 0.1653710901737213 0.47829464077949524 0.24960467219352722 -0.17075811326503754 -2.466276168823242 -0.9383214116096497 0.3387649357318878 -0.052461329847574234 -0.22322936356067657 0.326826274394989 -34.820579528808594 -58.51362228393555 -36.923587799072266 -134.64048767089844 88.26583862304688 135.00552368164062 -0.20428821444511414 -8.833269119262695 -2.9477133750915527 0.1706910878419876 0.26819831132888794 0.20995262265205383 -2.4474802017211914 -56.45652770996094 7.313838005065918 1.24345862865448 69.04452514648438 -2.389111042022705 1.6073694229125977 -13.525853157043457 -3.492870569229126
